<svg width="35" height="35" viewBox="0 0 28 32" fill="none" xmlns="http://www.w3.org/2000/svg">
<path d="M27.7309 27.0462L26.2793 25.4117C23.7564 22.5735 20.5202 18.9006 18.8618 17.0107L18.2899 16.388L17.7853 15.7819C17.7702 15.7636 17.39 15.3345 16.8232 14.6867C16.5474 14.3729 16.2278 14.0072 15.8847 13.6116C15.481 13.1474 15.0437 12.6416 14.6064 12.1307C14.4382 11.9437 14.2834 11.7534 14.1236 11.5664L14.1034 11.543L14.095 11.533L13.9067 11.3126C13.4021 10.7183 12.9227 10.144 12.5173 9.64313C11.34 8.19733 10.4468 6.71647 10.4468 5.24061C10.4458 4.50102 10.6089 3.77029 10.9245 3.10029C12.4198 0.31387 15.9301 0.712884 17.2757 2.94336C17.641 3.65481 17.8312 4.44208 17.8307 5.24061C17.8307 6.82165 16.8064 8.41269 15.5029 9.95365H20.3907C23.3544 3.68462 18.5136 0 14.3187 0H13.9823C8.98012 0 3.04944 5.23894 10.5511 13.857C10.6486 13.9588 10.7479 14.0573 10.8454 14.1558L11.3097 14.6884L11.3416 14.7251L10.9918 15.1125L1.99652 25.0361L1.75598 25.3082L0 27.2498L0.0353151 27.2766H0.0471005C2.21182 28.9461 13.942 36.9714 28 27.35L27.7309 27.0462ZM7.833 28.5337L8.93134 26.7072L10.6823 24.0076L12.3845 21.3815L13.6661 19.4048L14.0681 18.7854L14.6736 19.6452L15.3262 20.5701L16.475 22.1996L18.1924 24.6354L20.8633 28.4235C15.9049 30.3234 11.3988 29.7959 7.82797 28.5337H7.833Z" fill="black"/>
</svg>
