<?xml version="1.0" standalone="no"?>
<!DOCTYPE svg PUBLIC "-//W3C//DTD SVG 20010904//EN"
 "http://www.w3.org/TR/2001/REC-SVG-20010904/DTD/svg10.dtd">
<svg version="1.0" xmlns="http://www.w3.org/2000/svg"
 width="60pt" height="60pt" viewBox="0 0 150.000000 150.000000"
 preserveAspectRatio="xMidYMid meet">

<g transform="translate(0.000000,150.000000) scale(0.100000,-0.100000)"
fill="#000000" stroke="none">
<path d="M645 1433 c5 -10 9 -36 11 -57 2 -22 10 -46 19 -55 13 -14 15 -13 15
9 l1 25 20 -27 c11 -16 25 -28 31 -28 5 0 -6 19 -25 43 -19 23 -42 57 -51 75
-17 33 -34 46 -21 15z"/>
<path d="M774 1413 c-8 -25 -10 -26 -26 -10 -10 10 -19 13 -23 7 -3 -5 3 -15
15 -22 11 -7 20 -22 20 -33 0 -34 15 -49 30 -30 10 12 10 21 1 41 -6 14 -8 36
-5 50 8 32 0 31 -12 -3z m3 -75 c-3 -8 -6 -5 -6 6 -1 11 2 17 5 13 3 -3 4 -12
1 -19z"/>
<path d="M870 1362 c-25 -16 -52 -38 -61 -48 -30 -35 -97 -170 -105 -210 -4
-21 -22 -67 -41 -102 -41 -80 -44 -132 -8 -185 24 -35 25 -39 10 -59 -8 -13
-15 -38 -15 -56 0 -36 -27 -92 -45 -93 -5 0 1 -5 15 -11 l25 -11 -33 -7 c-19
-4 -39 -13 -45 -20 -10 -10 -7 -10 11 -1 27 14 84 11 89 -5 2 -6 -8 -9 -26 -6
-16 2 -32 -1 -35 -7 -4 -6 -20 -11 -35 -11 -15 0 -36 -7 -47 -16 -18 -15 -18
-15 3 -5 12 6 33 11 48 11 30 0 85 -26 85 -40 0 -13 -4 -13 -35 2 -31 14 -95
-4 -122 -35 -18 -20 -18 -20 9 -3 34 22 133 19 133 -4 0 -10 -15 -17 -49 -22
-27 -4 -54 -12 -60 -19 -8 -9 -3 -10 22 -6 38 8 43 -10 12 -38 -11 -10 -20
-29 -20 -42 0 -31 -25 -80 -48 -92 -11 -6 -29 -7 -42 -4 -22 6 -22 9 -15 72 4
36 8 98 9 137 1 47 6 79 16 91 8 10 4 8 -9 -6 -21 -22 -23 -31 -17 -82 6 -64
-6 -112 -37 -147 -19 -20 -20 -26 -8 -71 7 -28 12 -74 11 -103 -1 -29 -1 -65
-1 -80 l1 -28 545 0 545 0 0 315 0 315 -70 31 c-70 32 -70 32 -70 71 0 25 -10
60 -27 90 -25 46 -26 52 -15 94 17 64 16 79 -23 188 -40 114 -47 125 -106 187
-56 57 -116 85 -204 93 -66 7 -73 5 -115 -22z m150 -42 c0 -5 -2 -10 -4 -10
-3 0 -8 5 -11 10 -3 6 -1 10 4 10 6 0 11 -4 11 -10z m1 -47 c6 -6 17 -28 24
-49 l13 -39 -32 -6 c-18 -3 -43 -13 -57 -23 l-24 -18 25 7 c14 4 41 9 61 12
32 4 37 2 43 -21 3 -14 20 -41 36 -60 35 -40 36 -49 10 -118 -11 -29 -20 -64
-20 -77 0 -48 -105 -111 -187 -111 -41 0 -55 5 -77 27 -14 14 -29 38 -31 52
-3 14 -12 46 -21 71 -31 86 -29 109 16 179 38 59 43 63 71 57 19 -3 28 -2 24
4 -3 6 -15 10 -27 10 -14 0 -18 5 -14 16 3 9 6 24 6 35 0 11 12 31 26 46 22
22 32 25 75 21 28 -3 55 -10 60 -15z"/>
<path d="M408 1333 c-34 -39 -88 -177 -88 -225 0 -24 22 -23 38 2 15 24 4 27
-13 3 -11 -15 -12 -14 -8 12 9 58 12 60 41 32 41 -40 52 -33 12 8 l-33 34 18
48 c10 26 27 60 37 76 22 30 19 36 -4 10z"/>
<path d="M636 1305 c7 -18 -7 -20 -25 -2 -11 10 -14 9 -18 -1 -3 -6 -9 -10
-14 -6 -12 7 -11 -3 1 -27 14 -25 34 -24 27 2 -4 16 -3 18 8 9 8 -7 19 -9 25
-5 13 8 13 45 0 45 -5 0 -7 -7 -4 -15z"/>
<path d="M561 1228 c-1 -32 -7 -34 -33 -11 -10 9 -18 12 -18 6 0 -5 9 -18 20
-28 26 -23 43 -9 37 31 l-4 29 -2 -27z"/>
<path d="M436 1160 c-19 -47 -21 -90 -5 -90 6 0 9 7 5 15 -8 22 0 19 51 -20
25 -19 51 -35 57 -35 6 0 -5 13 -24 28 -81 63 -81 64 -70 101 14 49 6 49 -14
1z"/>
<path d="M356 908 c7 -31 3 -33 -27 -18 -12 7 -19 7 -19 1 0 -15 36 -32 54
-25 20 8 20 25 1 50 -15 18 -15 18 -9 -8z"/>
<path d="M253 849 c15 -11 27 -27 27 -35 0 -8 5 -14 11 -14 5 0 7 5 3 12 -4 7
-3 8 5 4 6 -4 9 -12 6 -17 -7 -10 23 -25 32 -15 3 3 0 13 -8 22 -13 16 -12 16
8 6 25 -14 62 -16 47 -4 -5 5 -35 16 -66 26 -32 9 -60 21 -63 26 -4 6 -12 10
-18 10 -7 0 0 -10 16 -21z"/>
<path d="M290 763 c0 -5 5 -14 12 -21 9 -9 6 -12 -16 -12 -15 0 -25 -4 -22 -9
8 -12 56 -1 56 14 0 7 -7 18 -15 25 -8 7 -15 8 -15 3z"/>
<path d="M264 695 c24 -18 39 -19 34 -3 -2 6 -15 13 -29 14 -23 4 -23 3 -5
-11z"/>
<path d="M276 635 c5 -28 5 -29 -10 -11 -17 22 -32 16 -23 -9 8 -19 43 -20 50
-1 3 8 -1 22 -9 33 -13 17 -14 16 -8 -12z"/>
<path d="M107 603 c-26 -26 16 -263 47 -263 7 0 25 18 40 41 34 50 92 78 164
79 28 0 52 4 52 8 0 5 -57 12 -127 15 -179 9 -176 8 -171 73 3 30 4 54 3 54
-1 0 -5 -3 -8 -7z m133 -133 c39 -1 43 -3 25 -13 -11 -7 -41 -34 -67 -60 l-47
-48 -15 52 c-24 78 -22 83 22 75 20 -3 57 -6 82 -6z"/>
<path d="M255 560 c-3 -5 -3 -10 2 -10 4 0 2 -4 -5 -9 -10 -6 -7 -10 12 -13
28 -6 36 6 10 16 -8 3 -12 10 -9 16 3 5 4 10 1 10 -3 0 -8 -4 -11 -10z"/>
</g>
</svg>
