<svg version="1.1" id="Layer_1" xmlns="http://www.w3.org/2000/svg" xmlns:xlink="http://www.w3.org/1999/xlink" x="0px" y="0px"
	 width="100%" viewBox="0 0 97 112" enable-background="new 0 0 97 112" xml:space="preserve">
<path fill="#E4E2E3" opacity="1.000000" stroke="none" 
	d="
M63.000000,113.000000 
	C42.000000,113.000000 21.500000,113.000000 1.000000,113.000000 
	C1.000000,75.666664 1.000000,38.333332 1.000000,1.000000 
	C33.333332,1.000000 65.666664,1.000000 98.000000,1.000000 
	C98.000000,38.333332 98.000000,75.666664 98.000000,113.000000 
	C86.500000,113.000000 75.000000,113.000000 63.000000,113.000000 
M61.069508,18.195312 
	C60.243122,18.096674 59.404812,18.056540 58.592098,17.890850 
	C37.865261,13.665209 20.017820,23.579023 10.372971,39.981750 
	C-2.237433,61.427906 4.779151,87.925369 26.024933,101.388573 
	C46.672974,114.472984 74.160271,108.508522 88.350540,87.399452 
	C96.194679,75.730721 97.434372,62.681671 93.543709,49.282150 
	C88.841537,33.087776 77.500069,23.465311 61.069508,18.195312 
z"/>
<path fill="#810854" opacity="1.000000" stroke="none" 
	d="
M61.481201,18.250286 
	C77.500069,23.465311 88.841537,33.087776 93.543709,49.282150 
	C97.434372,62.681671 96.194679,75.730721 88.350540,87.399452 
	C74.160271,108.508522 46.672974,114.472984 26.024933,101.388573 
	C4.779151,87.925369 -2.237433,61.427906 10.372971,39.981750 
	C20.017820,23.579023 37.865261,13.665209 58.592098,17.890850 
	C59.404812,18.056540 60.243122,18.096674 61.481201,18.250286 
M58.326717,65.934547 
	C59.602539,65.449036 60.878365,64.963524 62.861362,64.268677 
	C73.882332,60.974049 77.008492,47.068806 68.093231,39.369041 
	C62.020416,34.124195 52.746479,35.563099 45.168018,43.188313 
	C44.944874,44.060772 44.721733,44.933235 44.529041,46.456753 
	C44.336334,47.301720 44.143623,48.146687 43.511379,49.044956 
	C43.285812,49.195446 43.060246,49.345936 42.834679,49.496422 
	C43.201733,49.667629 43.568787,49.838837 44.068855,50.857174 
	C44.014824,52.567974 43.960796,54.278770 43.152740,55.997341 
	C41.762852,56.602238 40.372963,57.207138 38.436420,58.053459 
	C37.843983,58.112114 37.251545,58.170769 35.991634,58.341064 
	C35.699650,58.666885 35.407661,58.992710 34.656208,59.785454 
	C28.695023,65.225349 26.827450,71.548485 29.446711,77.423492 
	C32.513374,84.302025 38.837414,87.217598 47.182190,85.600098 
	C52.915665,84.488754 57.085781,78.872437 57.324318,71.955536 
	C57.392746,69.971420 57.487923,67.988220 58.326717,65.934547 
z"/>
<path fill="#ECE3E8" opacity="1.000000" stroke="none" 
	d="
M45.872116,42.958630 
	C52.746479,35.563099 62.020416,34.124195 68.093231,39.369041 
	C77.008492,47.068806 73.882332,60.974049 62.152275,64.255508 
	C60.700951,62.883251 59.958706,61.524155 59.491440,59.962532 
	C60.782326,59.218353 61.796894,58.674160 62.814392,58.135502 
	C67.201866,55.812778 68.171959,51.922585 66.967384,47.608269 
	C65.821114,43.502728 62.475300,41.325302 58.338226,41.658279 
	C53.946632,42.011738 50.474098,44.111118 50.204468,49.747452 
	C50.771725,50.559952 51.417931,50.905972 52.059418,51.411182 
	C52.054691,51.570374 52.038380,51.888477 51.619316,51.597401 
	C50.781055,52.253857 50.023834,53.192768 49.999409,54.150368 
	C49.873421,59.089806 50.157284,64.050552 49.791618,68.966179 
	C49.686573,70.378326 47.895775,71.665085 46.877895,73.009331 
	C45.965805,71.612610 44.410545,70.280098 44.263481,68.807007 
	C43.839996,64.564926 43.985054,60.266102 43.906769,55.989571 
	C43.960796,54.278770 44.014824,52.567974 44.081791,50.180107 
	C44.046787,49.332581 43.998852,49.162117 43.950916,48.991653 
	C44.143623,48.146687 44.336334,47.301720 44.775986,45.934219 
	C45.305996,44.594002 45.589054,43.776318 45.872116,42.958630 
z"/>
<path fill="#EFE5EB" opacity="1.000000" stroke="none" 
	d="
M52.038383,51.888477 
	C52.038380,51.888477 52.054691,51.570374 52.049240,51.052933 
	C52.161934,50.072945 52.280083,49.610394 52.737919,49.233490 
	C54.237911,49.327724 55.398220,49.336319 56.611065,49.604019 
	C56.917645,50.094856 57.171688,50.326591 57.412735,50.973228 
	C57.471737,54.239559 57.543736,57.090984 57.414017,60.234261 
	C57.331810,62.352268 57.451324,64.178436 57.570839,66.004601 
	C57.487923,67.988220 57.392746,69.971420 57.324318,71.955536 
	C57.085781,78.872437 52.915665,84.488754 47.182190,85.600098 
	C38.837414,87.217598 32.513374,84.302025 29.446711,77.423492 
	C26.827450,71.548485 28.695023,65.225349 35.222153,59.507408 
	C36.078434,58.896049 36.368771,58.562737 36.659107,58.229420 
	C37.251545,58.170769 37.843983,58.112114 39.120880,57.995773 
	C40.654381,58.707535 42.329941,59.991169 42.221748,60.165089 
	C41.354301,61.559418 40.374477,63.140903 39.005032,63.915886 
	C35.422054,65.943542 33.532143,68.836189 33.989716,72.856171 
	C34.449112,76.892120 37.027145,79.391991 40.910400,80.482086 
	C46.200787,81.967178 51.409832,77.989502 51.730556,71.825035 
	C52.075657,65.192131 51.955524,58.535023 52.038383,51.888477 
z"/>
<path fill="#891A5E" opacity="1.000000" stroke="none" 
	d="
M51.619320,51.597401 
	C51.955524,58.535023 52.075657,65.192131 51.730556,71.825035 
	C51.409832,77.989502 46.200787,81.967178 40.910400,80.482086 
	C37.027145,79.391991 34.449112,76.892120 33.989716,72.856171 
	C33.532143,68.836189 35.422054,65.943542 39.005032,63.915886 
	C40.374477,63.140903 41.354301,61.559418 42.221748,60.165089 
	C42.329941,59.991169 40.654381,58.707535 39.394207,57.875061 
	C40.372963,57.207138 41.762852,56.602238 43.529755,55.993454 
	C43.985054,60.266102 43.839996,64.564926 44.263481,68.807007 
	C44.410545,70.280098 45.965805,71.612610 46.877895,73.009331 
	C47.895775,71.665085 49.686573,70.378326 49.791618,68.966179 
	C50.157284,64.050552 49.873421,59.089806 49.999409,54.150368 
	C50.023834,53.192768 50.781055,52.253857 51.619320,51.597401 
z"/>
<path fill="#A34B83" opacity="1.000000" stroke="none" 
	d="
M57.948776,65.969574 
	C57.451324,64.178436 57.331810,62.352268 57.815762,60.279118 
	C58.684975,60.076439 58.950722,60.120750 59.216465,60.165058 
	C59.958706,61.524155 60.700951,62.883251 61.798691,64.360184 
	C60.878365,64.963524 59.602539,65.449036 57.948776,65.969574 
z"/>
<path fill="#891A5E" opacity="1.000000" stroke="none" 
	d="
M45.520065,43.073471 
	C45.589054,43.776318 45.305996,44.594002 44.760761,45.608692 
	C44.721733,44.933235 44.944874,44.060772 45.520065,43.073471 
z"/>
<path fill="#891A5E" opacity="1.000000" stroke="none" 
	d="
M43.731148,49.018303 
	C43.998852,49.162117 44.046787,49.332581 44.015282,49.756542 
	C43.568787,49.838837 43.201733,49.667629 42.834679,49.496422 
	C43.060246,49.345936 43.285812,49.195446 43.731148,49.018303 
z"/>
<path fill="#891A5E" opacity="1.000000" stroke="none" 
	d="
M36.325371,58.285240 
	C36.368771,58.562737 36.078434,58.896049 35.451885,59.273949 
	C35.407661,58.992710 35.699650,58.666885 36.325371,58.285240 
z"/>
<path fill="#840F58" opacity="1.000000" stroke="none" 
	d="
M59.491440,59.962532 
	C58.950722,60.120750 58.684975,60.076439 58.017479,59.987274 
	C57.543736,57.090984 57.471737,54.239559 57.472237,50.662006 
	C57.215992,49.738892 56.887260,49.541904 56.558525,49.344913 
	C55.398220,49.336319 54.237911,49.327724 52.207878,49.246502 
	C50.986572,49.209568 50.634998,49.245270 50.283424,49.280968 
	C50.474098,44.111118 53.946632,42.011738 58.338226,41.658279 
	C62.475300,41.325302 65.821114,43.502728 66.967384,47.608269 
	C68.171959,51.922585 67.201866,55.812778 62.814392,58.135502 
	C61.796894,58.674160 60.782326,59.218353 59.491440,59.962532 
z"/>
<path fill="#891A5E" opacity="1.000000" stroke="none" 
	d="
M50.204468,49.747452 
	C50.634998,49.245270 50.986572,49.209568 51.868187,49.160858 
	C52.280083,49.610394 52.161934,50.072945 52.053963,50.893742 
	C51.417931,50.905972 50.771725,50.559952 50.204468,49.747452 
z"/>
<path fill="#A34B83" opacity="1.000000" stroke="none" 
	d="
M56.611065,49.604019 
	C56.887260,49.541904 57.215992,49.738892 57.485229,50.247101 
	C57.171688,50.326591 56.917645,50.094856 56.611065,49.604019 
z"/>
</svg>